<svg width="18" height="18" viewBox="0 0 18 18" fill="none" xmlns="http://www.w3.org/2000/svg">
<path fill-rule="evenodd" clip-rule="evenodd" d="M17.3547 4.09922C17.2359 3.95709 17.0602 3.87497 16.875 3.875H4.27187L3.88984 1.77656C3.78186 1.18219 3.26426 0.750087 2.66016 0.75H1.25C0.904822 0.75 0.625 1.02982 0.625 1.375C0.625 1.72018 0.904822 2 1.25 2H2.65625L4.65312 12.9602C4.71195 13.2852 4.8556 13.5889 5.06953 13.8406C4.24996 14.6061 4.14205 15.8674 4.81967 16.761C5.49729 17.6546 6.74093 17.891 7.69916 17.3084C8.6574 16.7257 9.01981 15.5128 8.53828 14.5H12.0867C11.9469 14.7927 11.8745 15.1131 11.875 15.4375C11.875 16.6456 12.8544 17.625 14.0625 17.625C15.2706 17.625 16.25 16.6456 16.25 15.4375C16.25 14.2294 15.2706 13.25 14.0625 13.25H6.49766C6.1956 13.25 5.9368 13.0339 5.88281 12.7367L5.63516 11.375H14.6977C15.6038 11.3749 16.3802 10.7267 16.5422 9.83516L17.4922 4.61172C17.5247 4.42894 17.4744 4.24115 17.3547 4.09922ZM7.5 15.4375C7.5 15.9553 7.08027 16.375 6.5625 16.375C6.04473 16.375 5.625 15.9553 5.625 15.4375C5.625 14.9197 6.04473 14.5 6.5625 14.5C7.08027 14.5 7.5 14.9197 7.5 15.4375ZM15 15.4375C15 15.9553 14.5803 16.375 14.0625 16.375C13.5447 16.375 13.125 15.9553 13.125 15.4375C13.125 14.9197 13.5447 14.5 14.0625 14.5C14.5803 14.5 15 14.9197 15 15.4375ZM15.3125 9.61172C15.2584 9.90978 14.9982 10.1261 14.6953 10.125H5.40781L4.49922 5.125H16.1258L15.3125 9.61172Z" fill="#171412"/>
</svg>
