<svg width="24" height="18" viewBox="0 0 24 18" fill="none" xmlns="http://www.w3.org/2000/svg">
<path d="M23.4992 3.20281C23.3601 2.70431 23.0948 2.25013 22.7288 1.88418C22.3629 1.51823 21.9087 1.25289 21.4102 1.11381C19.5402 0.612807 12.0102 0.612807 12.0102 0.612807C12.0102 0.612807 4.5012 0.602807 2.6112 1.11381C2.11277 1.25312 1.65871 1.51868 1.29294 1.88481C0.92716 2.25094 0.662035 2.70525 0.523195 3.20381C0.168405 5.11862 -0.00668926 7.06241 0.000195359 9.00981C-0.00538317 10.9502 0.169706 12.8869 0.523195 14.7948C0.662185 15.2932 0.927377 15.7473 1.29314 16.1132C1.65891 16.4792 2.11288 16.7446 2.6112 16.8838C4.4802 17.3858 12.0112 17.3858 12.0112 17.3858C12.0112 17.3858 19.5192 17.3858 21.4102 16.8838C21.9088 16.7446 22.3631 16.4791 22.729 16.113C23.095 15.7469 23.3603 15.2925 23.4992 14.7938C23.8449 12.8855 24.0123 10.9491 23.9992 9.00981C24.0138 7.06246 23.8464 5.11801 23.4992 3.20181V3.20281ZM9.6082 12.6028V5.40681L15.8742 9.01081L9.6082 12.6028Z" fill="white"/>
</svg>
